<svg xmlns="http://www.w3.org/2000/svg" viewBox="0 0 19.7 19.7" width="512" height="512"><style>.a{fill:#FFF;}</style><path d="M9.8 3.1c0.6 0 1.1 0.4 1.5 1.1L17.3 14c0.9 1.4 0.2 2.6-1.5 2.6h-12c-1.6 0-2.3-1.2-1.5-2.6l5.9-9.9C8.7 3.4 9.3 3.1 9.8 3.1M9.8 1.1c-1.3 0-2.5 0.7-3.3 2l-5.9 9.9c-0.8 1.3-0.9 2.7-0.2 3.8s1.9 1.8 3.4 1.8h12c1.5 0 2.8-0.6 3.4-1.8s0.6-2.5-0.2-3.8l-5.9-9.9C12.3 1.8 11.1 1.1 9.8 1.1z" class="a"/><circle cx="9.8" cy="13.6" r="1.3" class="a"/><path d="M11.3 7.6c0-0.8-0.7-1.5-1.5-1.5s-1.5 0.7-1.5 1.5c0 0.2 0 0.4 0.1 0.6 0.6 1.4 1.4 3.4 1.4 3.4s0.8-2.1 1.4-3.4C11.3 8 11.3 7.8 11.3 7.6z"/></svg>