<svg xmlns="http://www.w3.org/2000/svg" viewBox="0 0 16.8 16"><path d="M16.5 7.6L14.5 6l0.7-2.5c0.1-0.2 0-0.3-0.1-0.5 -0.1-0.1-0.3-0.2-0.4-0.2l-2.6 0 -0.8-2.4c-0.1-0.2-0.2-0.3-0.3-0.3C10.8 0 10.6 0 10.5 0.1L8.4 1.6 6.3 0.1C6.1 0 6 0 5.8 0 5.6 0.1 5.5 0.2 5.4 0.4l-0.8 2.4L2 2.8C1.9 2.8 1.7 2.9 1.6 3.1 1.5 3.2 1.5 3.4 1.5 3.5l0.7 2.5L0.2 7.6C0.1 7.7 0 7.8 0 8c0 0.2 0.1 0.3 0.2 0.4l2.1 1.5L1.5 12.4c0 0.2 0 0.3 0.1 0.5 0.1 0.1 0.3 0.2 0.4 0.2l2.6 0 0.8 2.4c0.1 0.2 0.2 0.3 0.3 0.3 0.2 0.1 0.3 0 0.5-0.1l2.1-1.5 2.1 1.5c0.1 0.1 0.2 0.1 0.3 0.1 0.1 0 0.1 0 0.2 0 0.2-0.1 0.3-0.2 0.3-0.3l0.8-2.4 2.6 0c0.2 0 0.3-0.1 0.4-0.2 0.1-0.1 0.1-0.3 0.1-0.5L14.5 10l2.1-1.5c0.1-0.1 0.2-0.3 0.2-0.4C16.8 7.8 16.7 7.7 16.5 7.6z"/></svg>